<?xml version="1.0" encoding="iso-8859-1"?>
<!-- Generator: Adobe Illustrator 19.0.0, SVG Export Plug-In . SVG Version: 6.00 Build 0)  -->
<svg version="1.1" id="Layer_1" xmlns="http://www.w3.org/2000/svg" xmlns:xlink="http://www.w3.org/1999/xlink" x="0px" y="0px"
	 viewBox="0 0 512 512" style="enable-background:new 0 0 512 512;" xml:space="preserve">
<path style="fill:#6DC82A;" d="M256,512c-68.48,0-132.797-26.6-181.096-74.904C26.6,388.797,0,324.48,0,256
	c0-68.486,26.6-132.797,74.904-181.096C123.204,26.6,187.515,0,256,0c68.48,0,132.797,26.6,181.096,74.904
	C485.4,123.203,512,187.52,512,256c0,68.486-26.6,132.797-74.904,181.096l0,0l0,0C388.797,485.4,324.486,512,256,512z"/>
<path style="fill:#61B325;" d="M437.096,437.096C485.4,388.797,512,324.486,512,256c0-68.48-26.6-132.797-74.904-181.096
	C388.797,26.6,324.48,0,256,0v512C324.486,512,388.797,485.4,437.096,437.096z"/>
<path style="fill:#FFFFFF;" d="M279.624,256l82.695-82.695c6.526-6.52,6.526-17.103,0-23.624c-6.526-6.526-17.099-6.526-23.624,0
	L256,232.376l-82.695-82.695c-6.526-6.526-17.099-6.526-23.624,0c-6.526,6.52-6.526,17.103,0,23.624L232.376,256l-82.695,82.695
	c-6.526,6.52-6.526,17.103,0,23.624c3.263,3.263,7.538,4.895,11.812,4.895c4.274,0,8.549-1.632,11.812-4.895l82.695-82.695
	l82.695,82.695c3.263,3.263,7.538,4.895,11.812,4.895c4.274,0,8.549-1.632,11.812-4.895c6.526-6.52,6.526-17.103,0-23.624
	L279.624,256z"/>
<path style="fill:#FFEB99;" d="M279.624,256l82.695-82.695c6.526-6.52,6.526-17.103,0-23.624c-6.526-6.526-17.099-6.526-23.624,0
	L256,232.376v47.248l82.695,82.695c3.263,3.263,7.538,4.895,11.812,4.895c4.274,0,8.549-1.632,11.812-4.895
	c6.526-6.52,6.526-17.103,0-23.624L279.624,256z"/>
<g>
</g>
<g>
</g>
<g>
</g>
<g>
</g>
<g>
</g>
<g>
</g>
<g>
</g>
<g>
</g>
<g>
</g>
<g>
</g>
<g>
</g>
<g>
</g>
<g>
</g>
<g>
</g>
<g>
</g>
</svg>
