<?xml version="1.0" encoding="iso-8859-1"?>
<!-- Generator: Adobe Illustrator 19.0.0, SVG Export Plug-In . SVG Version: 6.00 Build 0)  -->
<svg version="1.1" id="Capa_1" xmlns="http://www.w3.org/2000/svg" xmlns:xlink="http://www.w3.org/1999/xlink" x="0px" y="0px"
	 viewBox="0 0 512.007 512.007" style="enable-background:new 0 0 512.007 512.007;" xml:space="preserve">
<g transform="translate(0 -1)">
	<g transform="translate(1 1)">
		<path style="fill:#7FACFA;" d="M418.748,321.799c-10.893,24.941-14.957,52.331-11.775,79.36
			c1.892,17.595,5.347,34.986,10.325,51.968c2.725,8.781,6.119,17.339,10.154,25.6c3.84,7.936,12.8,16.725,15.275,24.747H227.005
			c0,0-12.885-52.48-42.069-65.707c-5.461,1.877-11.179,3.84-16.981,5.803c-18.843,6.534-38.012,12.088-57.429,16.64
			c-5.476,1.258-11.224,0.437-16.129-2.304c-5.375-3.403-9.367-8.605-11.263-14.677c-2.304-6.062-3.151-12.58-2.474-19.029
			c1.993-6.573,2.689-13.471,2.048-20.309c-2.219-8.618-10.496-10.752-16.981-15.36c-5.206-3.755,4.181-15.787,4.181-15.787
			s-9.985-7.424-13.654-10.667c-3.669-3.072,1.536-8.363,6.229-18.347c1.978-4.324,2.545-9.16,1.621-13.824
			c-1.707-9.131-15.616-12.629-22.443-17.664c-3.157-2.389-8.363-5.973-9.046-10.325c-0.852-6.059,6.315-14.592,9.815-18.859
			c14.859-19.187,27.591-39.931,37.973-61.867c1.403-2.299,2.224-4.906,2.389-7.595c-0.085-12.203-17.835-17.237-19.456-29.099
			c-0.254-3.481,0.361-6.971,1.792-10.155c4.921-10.46,9.14-21.236,12.629-32.256c2.09-10.12,4.826-20.096,8.192-29.867
			c7.091-19.661,18.125-37.665,32.427-52.907c20.907-22.101,51.798-33.025,80.981-38.827c25.838-5.674,52.043-9.523,78.421-11.52
			c0.938-0.085,1.877-0.085,2.816-0.171c54.698-2.731,97.877,15.787,140.117,48.896c23.089,17.181,39.954,41.415,48.043,69.035
			c6.23,22.787,9.133,46.355,8.619,69.973c-0.175,23.309-6.95,46.091-19.541,65.707
			C445.117,282.461,428.392,299.869,418.748,321.799z"/>
		<path style="fill:#E3E7F2;" d="M392.637,321.799c-10.893,24.941-14.957,52.33-11.776,79.36
			c1.892,17.595,5.347,34.986,10.325,51.968c2.725,8.781,6.12,17.339,10.155,25.6c3.84,7.936,12.8,16.725,15.274,24.747H227.005
			c0,0-12.885-52.48-42.069-65.707c-5.461,1.877-11.179,3.84-16.981,5.803c-2.816-2.304-20.651,10.155-23.893,8.704
			c-15.759,6.263-32.903,8.207-49.665,5.632c-5.375-3.403-9.367-8.605-11.263-14.677c-2.304-6.062-3.151-12.58-2.474-19.029
			c1.993-6.573,2.689-13.471,2.048-20.309c-2.219-8.618-10.496-10.752-16.981-15.36c-5.206-3.755,4.181-15.787,4.181-15.787
			s-9.985-7.424-13.654-10.667c-3.669-3.072,1.536-8.363,6.229-18.347c1.978-4.324,2.545-9.16,1.621-13.824
			c-1.707-9.131-15.616-12.629-22.443-17.664c-3.157-2.389-8.363-5.973-9.046-10.325c-0.852-6.059,6.315-14.592,9.815-18.859
			c14.859-19.187,27.591-39.931,37.973-61.867c1.403-2.299,2.224-4.906,2.389-7.595c-0.085-12.203-17.835-17.237-19.456-29.099
			c-0.254-3.481,0.361-6.971,1.792-10.155c4.921-10.46,9.14-21.236,12.629-32.256c2.09-10.12,4.826-20.096,8.192-29.867
			c7.091-19.661,18.125-37.665,32.427-52.907c20.907-22.101,51.798-33.025,80.981-38.827c25.838-5.674,52.043-9.523,78.421-11.52
			c44.032,2.816,80.81,20.48,116.821,48.725c23.089,17.181,39.954,41.415,48.043,69.035c6.23,22.787,9.133,46.355,8.619,69.973
			c-0.175,23.309-6.95,46.091-19.541,65.707C419.005,282.461,402.279,299.869,392.637,321.799z"/>
		<path style="fill:#A4C2F7;" d="M385.174,72.142c10.938,7.641,20.444,17.147,28.085,28.085l-17.201,17.2
			c5.719,8.913,9.808,18.773,12.076,29.118h24.311c2.331,13.139,2.331,26.585,0,39.724h-24.311
			c-2.268,10.345-6.357,20.204-12.076,29.118l17.201,17.201c-7.641,10.938-17.147,20.444-28.085,28.085l-17.2-17.201
			c-8.913,5.719-18.773,9.808-29.118,12.076v24.311c-13.139,2.331-26.585,2.331-39.724,0v-24.311
			c-10.345-2.268-20.204-6.357-29.118-12.076l-17.201,17.201c-10.938-7.641-20.444-17.147-28.085-28.085l17.201-17.2
			c-5.719-8.913-9.808-18.773-12.076-29.118h-24.311c-2.33-13.139-2.33-26.585,0-39.724h24.311
			c2.268-10.345,6.357-20.204,12.076-29.118l-17.201-17.201c7.641-10.938,17.147-20.444,28.085-28.085l17.2,17.201
			c8.913-5.719,18.773-9.808,29.118-12.076V52.955c13.139-2.33,26.585-2.33,39.724,0v24.311
			c10.345,2.268,20.204,6.357,29.118,12.076L385.174,72.142z"/>
		<g>
			<circle style="fill:#E3E7F2;" cx="161.127" cy="256.007" r="25.6"/>
			<circle style="fill:#E3E7F2;" cx="144.065" cy="153.611" r="20.48"/>
			<circle style="fill:#E3E7F2;" cx="318.994" cy="166.407" r="46.933"/>
		</g>
		<g>
			<path style="fill:#7FACFA;" d="M396.05,117.426c5.664,8.838,9.736,18.6,12.031,28.843l-1.194,0.256h-24.32
				c-2.287-10.34-6.389-20.192-12.117-29.099l17.237-17.237c-4.155-5.928-8.87-11.443-14.08-16.469l11.605-11.605
				c10.909,7.667,20.408,17.165,28.075,28.075L396.05,117.426z"/>
			<path style="fill:#7FACFA;" d="M434.194,166.407c-0.007,6.664-0.578,13.315-1.707,19.883h-25.6
				c2.275-13.157,2.275-26.608,0-39.765l1.194-0.256c0.066,0.068,0.097,0.162,0.085,0.256h24.321
				C433.616,153.092,434.187,159.743,434.194,166.407z"/>
			<path style="fill:#7FACFA;" d="M413.287,232.626c-7.667,10.909-17.165,20.408-28.075,28.075l-11.605-11.605
				c5.21-5.026,9.925-10.541,14.08-16.469l-17.237-17.237c5.728-8.907,9.831-18.759,12.117-29.099h25.6
				c-2.287,10.34-6.389,20.192-12.117,29.099L413.287,232.626z"/>
		</g>
		<g>
			<path style="fill:#FFFFFF;" d="M90.727,174.343c-1.431,3.184-2.046,6.674-1.792,10.155c1.621,11.861,19.371,16.896,19.456,29.099
				c-0.166,2.688-0.986,5.296-2.389,7.595c-10.382,21.936-23.114,42.679-37.973,61.867c-3.5,4.267-10.667,12.8-9.815,18.859
				c0.684,4.352,5.889,7.936,9.047,10.325c6.827,5.035,20.735,8.533,22.443,17.664c0.923,4.664,0.356,9.5-1.622,13.824
				c-4.693,9.984-9.898,15.275-6.229,18.347c3.67,3.243,13.654,10.667,13.654,10.667s-9.388,12.032-4.181,15.787
				c6.485,4.608,14.763,6.741,16.981,15.36c0.641,6.839-0.055,13.736-2.048,20.309c-0.677,6.449,0.17,12.968,2.474,19.029
				c1.896,6.073,5.888,11.274,11.264,14.677c0.256,0.085,0.427,0.256,0.683,0.341c-1.109,0.085-2.133,0.256-3.157,0.341
				c-2.475,0.597-4.778,1.195-6.997,1.621c-5.476,1.258-11.224,0.437-16.129-2.304c-5.375-3.403-9.367-8.605-11.263-14.677
				c-2.304-6.062-3.151-12.58-2.474-19.029c1.993-6.573,2.689-13.471,2.048-20.309c-2.219-8.618-10.496-10.752-16.981-15.36
				c-5.206-3.755,4.181-15.787,4.181-15.787s-9.985-7.424-13.654-10.667c-3.669-3.072,1.536-8.363,6.229-18.347
				c1.978-4.324,2.545-9.16,1.621-13.824c-1.707-9.131-15.616-12.629-22.443-17.664c-3.157-2.389-8.363-5.973-9.046-10.325
				c-0.852-6.059,6.315-14.592,9.815-18.859c14.859-19.187,27.591-39.931,37.973-61.867c1.403-2.299,2.224-4.906,2.389-7.595
				c-0.085-12.203-17.835-17.237-19.456-29.099c-0.254-3.481,0.361-6.971,1.792-10.155c4.921-10.46,9.14-21.236,12.629-32.256
				c2.09-10.12,4.826-20.096,8.192-29.867c7.091-19.661,18.125-37.665,32.427-52.907c20.907-22.101,51.798-33.025,80.981-38.827
				c25.838-5.674,52.043-9.523,78.421-11.52c0.938-0.085,1.877-0.085,2.816-0.171c7.591-0.414,15.2-0.357,22.783,0.171
				c-26.378,1.997-52.583,5.846-78.421,11.52c-29.183,5.803-60.075,16.725-80.981,38.827
				c-14.301,15.242-25.336,33.246-32.427,52.907c-3.366,9.77-6.102,19.746-8.192,29.867
				C99.867,153.107,95.648,163.883,90.727,174.343z"/>
			<path style="fill:#FFFFFF;" d="M252.605,503.474h-25.6c0,0-10.24-41.643-33.108-59.989c5.717-1.963,11.262-3.84,16.64-5.717
				C239.719,450.994,252.605,503.474,252.605,503.474z"/>
		</g>
	</g>
	<g>
		<path style="fill:#FFFFFF;" d="M125.529,66.197c-11.964,12.777-21.512,27.618-28.181,43.802c-3.375,8.122-6.032,16.524-7.94,25.11
			c-1.143,4.552-1.869,8.567-3.375,13.89c-1.459,4.763-3.217,9.43-5.265,13.971c-2.37,5.415-4.765,10.475-6.618,15.4l-15.969-6.021
			c2.196-5.81,4.728-11.12,6.948-16.211c1.759-3.886,3.272-7.878,4.53-11.954c1.04-3.566,2.054-8.646,3.153-13.061
			c2.124-9.47,5.063-18.738,8.786-27.7c7.466-18.094,18.152-34.683,31.539-48.963L125.529,66.197z"/>
		<g>
			<path style="fill:#428DFF;" d="M82.667,126.908c2.184,0.531,4.486,0.255,6.483-0.776c1.884-1.069,3.311-2.791,4.011-4.841
				c0.605-2.058,0.433-4.266-0.483-6.205l-0.843-1.374c-0.335-0.465-0.728-0.884-1.169-1.249c-0.367-0.399-0.79-0.743-1.255-1.02
				c-0.492-0.292-1.003-0.551-1.529-0.774c-3.273-1.38-7.065-0.398-9.256,2.397c-2.317,2.753-2.772,6.622-1.155,9.837
				c0.571,0.976,1.33,1.828,2.233,2.507C80.582,126.103,81.589,126.612,82.667,126.908z"/>
			<path style="fill:#428DFF;" d="M36.452,279.086c-6.125,7.479-12.55,16.204-11.25,25.087c1.859,6.729,6.305,12.45,12.367,15.913
				c2.821,1.961,5.798,3.688,8.9,5.163c3.683,1.875,9.85,5.021,10.275,7.267c0.562,2.881,0.236,5.866-0.934,8.558
				c-1.267,2.671-2.583,4.979-3.717,6.983c-3.133,5.542-8.383,14.817-0.467,21.454c1.842,1.629,4.992,4.105,7.875,6.308
				c-2.135,3.75-3.093,8.056-2.75,12.358c0.461,3.339,2.279,6.34,5.025,8.296c1.908,1.354,3.95,2.533,5.975,3.692
				c5.017,2.859,6.975,4.192,7.65,6.854c0.448,3.475,0.133,7.006-0.925,10.346c-0.492,2.238-0.975,4.475-1.275,6.708
				c-0.857,7.761,0.122,15.616,2.859,22.929c3.8,13.586,16.078,23.059,30.183,23.287c2.349-0.004,4.692-0.249,6.992-0.729
				c24.339-5.87,48.343-13.049,71.908-21.505c19.222,11.288,31.383,45.579,34.542,58.451c0.942,3.814,4.363,6.496,8.292,6.5h215.75
				c2.705-0.001,5.25-1.284,6.859-3.459c1.609-2.175,2.091-4.984,1.3-7.57c-2.279-6.014-5.524-11.616-9.609-16.583
				c-2.313-2.949-4.37-6.09-6.15-9.388c-3.845-7.873-7.068-16.034-9.642-24.408c-4.879-16.48-8.245-33.371-10.058-50.462
				c-3.017-25.518,0.835-51.378,11.158-74.908c6.317-13.023,14.088-25.289,23.167-36.563c5.158-6.938,10.483-14.113,15.283-21.679
				c13.47-20.925,20.713-45.248,20.883-70.133c0.511-24.457-2.495-48.86-8.925-72.463c-8.63-29.327-26.529-55.069-51.016-73.371
				c-48.142-37.762-93.15-53.416-145.8-50.725c-27.764,1.917-55.351,5.858-82.542,11.792c-38.5,7.75-66.458,21.283-85.492,41.371
				l-0.002,0.004l-0.002-0.002c-8.259,8.767-15.488,18.451-21.547,28.861c-1.203,1.978-1.535,4.366-0.916,6.597
				c0.618,2.231,2.132,4.108,4.182,5.184c4.068,2.1,9.067,0.715,11.475-3.179c5.398-9.279,11.838-17.91,19.196-25.726
				c16.533-17.449,41.549-29.348,76.473-36.378c26.37-5.762,53.124-9.6,80.05-11.483c48.3-2.429,89.733,12.071,134.409,47.121
				c21.706,16.012,37.556,38.707,45.116,64.599c5.977,22.006,8.764,44.756,8.275,67.554c-0.144,21.733-6.471,42.976-18.242,61.246
				c-4.458,7.025-9.591,13.942-14.558,20.634c-9.854,12.309-18.278,25.697-25.108,39.908
				c-11.542,26.321-15.844,55.247-12.459,83.788c1.931,18.105,5.51,35.995,10.692,53.45c2.829,9.197,6.367,18.16,10.583,26.808
				c2.216,4.231,4.807,8.256,7.742,12.025c0.117,0.154,0.233,0.313,0.341,0.471H234.436c-5.683-20.253-15.98-38.914-30.083-54.521
				c2.233-0.779,4.35-1.521,6.317-2.213c6.391-2.238,11.208-3.929,13.633-4.692c36.583-11.483,54.883-28.108,54.383-49.417
				c-0.11-4.713-4.021-8.444-8.733-8.333c-4.713,0.11-8.444,4.021-8.333,8.733c0.208,8.792-6.983,21.608-42.442,32.738
				c-2.517,0.796-7.525,2.542-14.15,4.867c-6.117,2.142-13.65,4.779-21.892,7.596l-0.018,0.009l-0.024,0.004
				c-24.023,8.694-48.497,16.083-73.317,22.138c-7.993,1.551-15.776-3.511-17.6-11.446c-1.847-4.793-2.552-9.95-2.058-15.063
				c0.233-1.766,0.633-3.533,1.025-5.3c1.75-5.92,2.022-12.179,0.792-18.229c-2.445-7.837-8.188-14.217-15.725-17.471
				c-0.608-0.346-1.225-0.696-1.825-1.05c0.911-1.866,2.005-3.638,3.267-5.288c1.423-1.813,2.051-4.124,1.742-6.408
				c-0.309-2.284-1.53-4.345-3.383-5.714c-2.05-1.513-6.925-5.167-10.433-7.967c0.433-0.796,0.925-1.667,1.375-2.454
				c1.308-2.317,2.808-4.987,4.267-8.05c2.731-5.969,3.532-12.642,2.292-19.088c-1.992-10.462-11.992-15.558-19.292-19.283
				c-2.474-1.171-4.846-2.545-7.092-4.108c-1.773-1.231-3.453-2.592-5.025-4.071c0.025-1.283,1.358-4.404,7.925-12.417
				c15.251-19.659,28.324-40.914,38.992-63.392c2.054-3.521,3.202-7.497,3.342-11.571c-0.868-8.597-5.43-16.392-12.5-21.358
				c-3.45-3.158-6.708-6.142-7.075-8.758c0.031-2.07,0.497-4.109,1.367-5.988l0.003-0.019c1.853-4.921,4.245-9.978,6.613-15.39
				c1.174-2.688,2.341-5.468,3.408-8.374c0.907-2.193,0.823-4.67-0.231-6.796c-1.054-2.126-2.975-3.693-5.269-4.299
				c-4.31-1.092-8.773,1.117-10.519,5.206c-0.895,2.435-1.925,4.905-3.028,7.43c-2.218,5.086-4.745,10.391-6.94,16.191l-0.005,0.009
				c-1.971,4.515-2.762,9.457-2.3,14.363c1.732,7.627,6.151,14.376,12.45,19.012c4.183,3.833,6.933,6.525,6.958,8.975
				c-0.331,1.276-0.833,2.501-1.492,3.642C63.582,239.87,51.059,260.241,36.452,279.086z"/>
			<path style="fill:#428DFF;" d="M206.544,139.011c-4.134-0.001-7.674,2.963-8.4,7.033c-2.511,14.131-2.511,28.594,0,42.725
				c0.726,4.07,4.266,7.034,8.4,7.033h17.692c1.965,6.677,4.639,13.125,7.975,19.233l-12.517,12.517
				c-2.925,2.924-3.333,7.524-0.967,10.917c8.204,11.771,18.429,21.996,30.2,30.2c3.393,2.362,7.99,1.957,10.917-0.962
				l12.517-12.517c6.111,3.337,12.562,6.011,19.242,7.975v17.696c0.002,4.133,2.965,7.671,7.033,8.4
				c14.129,2.506,28.588,2.506,42.717,0c4.069-0.729,7.031-4.267,7.033-8.4v-17.696c6.68-1.964,13.131-4.638,19.242-7.975
				l12.517,12.517c2.926,2.92,7.524,3.326,10.917,0.962c11.771-8.204,21.996-18.429,30.2-30.2c2.366-3.392,1.959-7.993-0.967-10.917
				l-12.517-12.517c3.336-6.108,6.01-12.556,7.975-19.233h17.692c4.134,0.001,7.674-2.963,8.4-7.033
				c2.511-14.131,2.511-28.594,0-42.725c-0.726-4.07-4.266-7.034-8.4-7.033h-17.692c-1.965-6.677-4.639-13.125-7.975-19.233
				l12.517-12.517c2.925-2.924,3.333-7.524,0.967-10.917c-8.204-11.771-18.429-21.996-30.2-30.2
				c-3.389-2.374-7.995-1.968-10.917,0.962l-12.517,12.517c-6.111-3.337-12.562-6.011-19.242-7.975V53.953
				c-0.002-4.133-2.965-7.671-7.033-8.4c-14.13-2.492-28.587-2.492-42.717,0c-4.069,0.729-7.031,4.267-7.033,8.4v17.696
				c-6.68,1.964-13.131,4.638-19.242,7.975l-12.517-12.517c-2.922-2.93-7.527-3.336-10.917-0.962
				c-11.771,8.204-21.996,18.429-30.2,30.2c-2.366,3.392-1.959,7.993,0.967,10.917l12.517,12.517
				c-3.336,6.108-6.01,12.556-7.975,19.233L206.544,139.011z M239.186,149.378c2.046-9.358,5.743-18.276,10.917-26.338
				c2.175-3.374,1.7-7.809-1.142-10.646l-11.975-11.975c4.744-5.903,10.115-11.273,16.017-16.017l11.975,11.971
				c2.832,2.844,7.267,3.324,10.642,1.15c8.064-5.18,16.987-8.879,26.35-10.925c3.913-0.861,6.7-4.327,6.7-8.333V61.349
				c7.528-0.808,15.122-0.808,22.65,0v16.917c0,4.006,2.787,7.473,6.7,8.333c9.363,2.046,18.286,5.745,26.35,10.925
				c3.377,2.165,7.805,1.686,10.642-1.15l11.975-11.971c5.903,4.744,11.273,10.115,16.017,16.017l-11.975,11.975
				c-2.841,2.836-3.317,7.271-1.142,10.646c5.174,8.061,8.871,16.98,10.917,26.338c0.859,3.913,4.327,6.701,8.333,6.7h16.917
				c0.811,7.531,0.811,15.127,0,22.658h-16.918c-4.007-0.001-7.474,2.787-8.333,6.7c-2.046,9.358-5.743,18.276-10.917,26.338
				c-2.175,3.374-1.7,7.809,1.142,10.646l11.975,11.975c-4.744,5.903-10.115,11.273-16.017,16.017l-11.975-11.971
				c-2.836-2.837-7.265-3.316-10.642-1.15c-8.064,5.18-16.987,8.879-26.35,10.925c-3.913,0.861-6.7,4.327-6.7,8.333v16.917
				c-7.528,0.808-15.122,0.808-22.65,0v-16.917c0-4.006-2.787-7.473-6.7-8.333c-9.363-2.046-18.286-5.745-26.35-10.925
				c-3.374-2.175-7.81-1.695-10.642,1.15l-11.975,11.971c-5.903-4.744-11.273-10.115-16.017-16.017l11.975-11.975
				c2.841-2.836,3.317-7.271,1.142-10.646c-5.174-8.061-8.871-16.98-10.917-26.338c-0.859-3.913-4.327-6.701-8.333-6.7h-16.916
				c-0.811-7.531-0.811-15.127,0-22.658h16.917C234.859,156.079,238.326,153.291,239.186,149.378L239.186,149.378z"/>
			<path style="fill:#428DFF;" d="M186.261,220.803l-6.904,6.906c-2.715-1.608-5.642-2.828-8.696-3.624v-9.745
				c0-4.713-3.821-8.533-8.533-8.533c-4.713,0-8.533,3.821-8.533,8.533v9.745c-3.054,0.796-5.981,2.016-8.695,3.624l-6.904-6.906
				c-2.155-2.156-5.297-2.997-8.242-2.208c-2.944,0.789-5.244,3.089-6.033,6.033c-0.789,2.944,0.053,6.086,2.208,8.242l6.904,6.906
				c-1.61,2.715-2.83,5.643-3.625,8.698h-9.746c-4.713,0-8.533,3.821-8.533,8.533c0,4.713,3.821,8.533,8.533,8.533h9.746
				c0.795,3.055,2.015,5.983,3.625,8.698l-6.904,6.906c-2.155,2.156-2.997,5.297-2.208,8.242c0.789,2.944,3.089,5.244,6.033,6.033
				c2.944,0.789,6.086-0.053,8.242-2.208l6.904-6.906c2.715,1.608,5.642,2.828,8.696,3.624v9.745c0,4.713,3.821,8.533,8.533,8.533
				c4.713,0,8.533-3.82,8.533-8.533v-9.745c3.054-0.796,5.981-2.016,8.695-3.624l6.904,6.906c3.332,3.332,8.735,3.332,12.067,0
				c3.332-3.332,3.332-8.735,0-12.067l-6.904-6.906c1.61-2.715,2.83-5.643,3.625-8.698h9.746c4.713,0,8.533-3.821,8.533-8.533
				c0-4.713-3.821-8.533-8.533-8.533h-9.746c-0.795-3.055-2.015-5.983-3.625-8.698l6.904-6.906c3.332-3.332,3.332-8.735,0-12.067
				C194.995,217.471,189.593,217.471,186.261,220.803z M162.127,274.074c-9.426,0-17.067-7.641-17.067-17.067
				s7.641-17.067,17.067-17.067s17.067,7.641,17.067,17.067C179.183,266.428,171.548,274.063,162.127,274.074z"/>
			<path style="fill:#428DFF;" d="M110.927,146.074c-4.713,0-8.533,3.821-8.533,8.533s3.821,8.533,8.533,8.533h6.53
				c0.526,1.712,1.213,3.371,2.051,4.954l-4.615,4.617c-2.156,2.156-2.997,5.297-2.208,8.242c0.789,2.944,3.089,5.244,6.033,6.033
				c2.944,0.789,6.086-0.053,8.242-2.208l4.628-4.63c1.579,0.834,3.232,1.519,4.938,2.046v6.547c0,4.713,3.821,8.533,8.533,8.533
				c4.713,0,8.533-3.821,8.533-8.533v-6.547c1.706-0.526,3.359-1.211,4.937-2.046l4.629,4.631c3.332,3.332,8.735,3.332,12.067,0
				c3.332-3.332,3.332-8.735,0-12.067l-4.616-4.618c0.839-1.583,1.526-3.241,2.052-4.953h6.53c4.713,0,8.533-3.821,8.533-8.533
				s-3.821-8.533-8.533-8.533h-6.53c-0.526-1.712-1.213-3.37-2.052-4.953l4.616-4.618c2.156-2.156,2.997-5.297,2.208-8.242
				c-0.789-2.944-3.089-5.244-6.033-6.033c-2.944-0.789-6.086,0.053-8.242,2.208l-4.629,4.631c-1.579-0.834-3.232-1.518-4.937-2.044
				v-6.549c0-4.713-3.821-8.533-8.533-8.533c-4.713,0-8.533,3.821-8.533,8.533v6.55c-1.706,0.526-3.359,1.21-4.937,2.044
				l-4.629-4.632c-3.332-3.332-8.735-3.332-12.067,0c-3.332,3.332-3.332,8.735,0,12.067l4.616,4.618
				c-0.839,1.583-1.526,3.241-2.052,4.953H110.927z M133.111,154.607c-0.002-5.409,3.63-10.145,8.855-11.546
				c5.224-1.401,10.739,0.882,13.444,5.566c2.705,4.684,1.927,10.601-1.898,14.426c-3.416,3.419-8.556,4.443-13.022,2.594
				C136.022,163.799,133.11,159.441,133.111,154.607z"/>
			<path style="fill:#428DFF;" d="M319.994,222.874c30.633,0,55.467-24.833,55.467-55.467s-24.833-55.467-55.467-55.467
				s-55.467,24.833-55.467,55.467C264.563,198.026,289.375,222.838,319.994,222.874z M319.994,129.007
				c21.208,0,38.4,17.192,38.4,38.4s-17.192,38.4-38.4,38.4c-21.208,0-38.4-17.192-38.4-38.4
				C281.617,146.209,298.796,129.03,319.994,129.007z"/>
		</g>
	</g>
</g>
<g>
</g>
<g>
</g>
<g>
</g>
<g>
</g>
<g>
</g>
<g>
</g>
<g>
</g>
<g>
</g>
<g>
</g>
<g>
</g>
<g>
</g>
<g>
</g>
<g>
</g>
<g>
</g>
<g>
</g>
</svg>
